<svg xmlns="http://www.w3.org/2000/svg" width="339" height="501" fill="none"><path fill="#E4DCD8" d="M88.713 67.472c0 6.011 1.773 10.56 4.969 13.587 3.159 2.991 7.816 4.598 13.951 4.598 6.462 0 11.316-1.617 14.588-4.61 3.306-3.023 5.122-7.567 5.122-13.575 0-22.197-.01-44.237-10.044-66.326L116.78.004h14.719v67.468c0 8.196-2.354 14.702-6.995 19.18-4.68 4.514-11.578 6.864-20.298 6.864-9.386 0-16.807-2.33-21.851-6.838-5.013-4.48-7.55-10.998-7.55-19.206V.004h13.908zM163.05.063V.008h8.315c11.899 0 20.726 1.341 26.607 4.124 5.978 2.828 8.769 7.076 8.769 12.55 0 5.378-2.576 9.753-7.607 12.764-4.327 2.59-10.357 4.105-17.851 4.465 5.335 2.214 9.238 5.116 12.279 9.015 3.791 4.862 6.214 11.243 8.5 19.666v.003c2.425 9.113 4.254 16.194 6.473 21.008 1.11 2.407 2.28 4.158 3.588 5.297 1.271 1.107 2.629 1.604 4.225 1.604h3.22v2.633h-3.22c-4.234 0-7.842-.704-10.938-2.098-3.088-1.39-5.592-3.435-7.7-6.035-4.189-5.168-6.92-12.68-9.51-22.073-2.608-9.396-4.164-15.877-6.747-20.56-1.277-2.317-2.785-4.149-4.756-5.645-1.968-1.495-4.446-2.692-7.728-3.69l-.736-.224V32.8a25 25 0 0 1-1.379-.399v60.735h-13.908V0zM60.735 12.318l-2.09-1.685c-7.177-5.784-14.607-7.264-21.367-7.677v90.177H23.37V2.957c-6.742.42-14.1 1.949-21.283 7.68L0 12.302V.004h60.735zM236.556.784c.472 3.315 2.284 6.67 4.456 10.007l.438.667 38.238 57.636c-.492-22.697-2.484-45.39-10.259-68.01l-.372-1.08h14.683v93.129h-3.448l-48.084-72.758c.31 23.981 2.075 47.895 10.292 71.676l.373 1.082h-14.685V14.328L218.694.004h17.75zm-70.904 91.48h-11.506v.003h11.509V31.023c1.054.382 2.283.826 3.776 1.145v-.002c-1.494-.319-2.724-.764-3.779-1.146zm33.964-6.686c3.974 4.37 9.212 6.689 16.732 6.689h2.02v-.893h-.002v.89h-2.02c-7.519 0-12.756-2.317-16.73-6.686M36.077 92.263h.001V2.023zm156.779-48.464c3.498 4.677 5.814 10.808 8.027 18.958 3.302 12.414 5.539 21.225 9.204 25.56-3.664-4.336-5.9-13.146-9.202-25.557-2.285-8.413-4.678-14.674-8.368-19.406zm45.877 40.2zM76.003.875h11.51v66.598c0 12.236 7.204 19.055 20.119 19.055 8.456 0 14.51-2.664 17.861-7.65-3.351 4.985-9.404 7.65-17.86 7.65-12.915 0-20.12-6.82-20.12-19.056V.874zm161.162 77.216v-.001m-111.061-.203q-.073.13-.148.257.076-.127.148-.257m1.667-4.114v.001M280.583 59.59c.196 4.477.31 8.953.375 13.427l.002.002c-.065-4.475-.181-8.951-.377-13.43m-150.284 7.884v-.001m-2.101 4.33v.002zm.323-3.2v.002zm104.17-16.548c.62 5.793 1.455 11.583 2.575 17.368-1.12-5.786-1.955-11.576-2.575-17.37zm4.828-44.965c.826 1.6 1.813 3.185 2.851 4.747l21.956 33.094-21.956-33.095c-1.038-1.561-2.025-3.148-2.851-4.747m-68.08599999999998 25.141999999999996c5.106 1.554 8.458 3.61 10.927 6.557-2.468-2.948-5.82-5.005-10.927-6.559zM202.98 9.077c1.725 2.127 2.559 4.663 2.559 7.603 0 10.324-9.839 16.442-27.85 16.442h-1.318l.01.003h1.31c18.011 0 27.851-6.118 27.851-16.442 0-3.103-.929-5.757-2.854-7.954zM166.854 29.51c2.753 1.131 6.293 1.726 10.837 1.726 4.975 0 8.69-1.357 11.199-3.779 2.545-2.457 3.943-6.103 3.943-10.773 0-4.737-1.662-8.14-5.016-10.377-3.375-2.252-8.689-3.475-16.452-3.475h-4.511zm64.205-5.904v-.002zM165.652 30l.003.001V1.961h5.71c10.247 0 16.73 2.088 20.026 6.21-3.296-4.124-9.779-6.213-20.028-6.213h-5.711zM1.199.875h58.335v9.174l.002.002V.874zm200.137 6.524.003.002zm34.697-3.753v-.001M220.604.875h14.758V.874h-14.759zm50.106.346-.117-.346h11.948V.874h-11.949zM118.438.875h11.861V.874zM175.506 271.035c7.613 0 13.977 2.8 18.621 7.875 4.618 5.047 7.568 12.366 8.512 21.556l.037.362-15.341 12.427.504-2.808c2.169-12.083 1.245-21.345-1.361-27.546-1.305-3.101-3.011-5.39-4.901-6.888-1.878-1.489-3.892-2.165-5.892-2.165-2.269 0-4.443.893-6.484 2.816-2.047 1.93-3.852 4.805-5.341 8.513-2.973 7.405-4.595 17.9-4.595 30.141 0 13.954 2.135 24.364 5.917 31.254 3.787 6.899 9.06 10.027 15.223 10.027 4.719 0 8.868-2.287 12.183-7.034 3.31-4.74 5.628-11.742 6.735-20.676l.098-.79h4.039l-.11.938c-1.299 11.04-4.417 19.856-9.085 25.94-4.675 6.092-11.025 9.575-18.759 9.575-9.799 0-17.439-4.695-22.564-12.801-5.121-8.1-7.867-19.775-7.867-34.211 0-14.341 2.747-25.892 7.87-33.891 5.131-8.009 12.773-12.614 22.561-12.614m-156.304.375c12.014 0 20.832 1.304 26.675 4.029 5.945 2.774 8.655 6.945 8.655 12.326 0 4.25-1.848 7.837-5.455 10.552-2.671 2.011-6.252 3.501-10.625 4.442 6.795 1.707 12.305 4.859 16.297 9.258 4.871 5.367 7.442 12.542 7.442 21.131 0 9.524-3.807 17.293-10.858 22.688-7.06 5.403-17.248 8.329-29.727 8.329H1.063V271.41zm118.987 92.755h-14.351l-10.421-29.769H87.279c-1.854 9.613-2.763 19.214-2.159 28.864l.057.905H69.97l26.917-77.308v-.001l5.395-15.446h3.595zm95.932-62.709 13.204-10.34c7.509-5.911 11.388-11.709 12.427-18.928l.112-.778h18.487l-36.237 27.923a21 21 0 0 1 1.569-.058c3.277 0 6.205.398 8.82 1.443 2.618 1.045 4.818 2.697 6.74 5.077 3.689 4.567 6.482 11.98 9.242 23.482l.267 1.126c3.216 13.753 5.026 21.634 6.997 26.098.985 2.231 1.954 3.463 2.999 4.149.98.644 2.161.893 3.947.893h2.107v2.622h-4.69c-3.474 0-6.55-.58-9.273-1.867-2.709-1.281-4.985-3.223-6.963-5.85-3.934-5.224-6.83-13.35-9.547-24.997-2.766-11.762-4.799-19.093-6.983-23.482-1.092-2.195-2.177-3.555-3.303-4.365-1.07-.768-2.221-1.072-3.656-1.072-1.037 0-2.087.326-3.019.783-.923.453-1.617.979-1.91 1.241l-.032.027-1.305.982v58.6h-14.1V271.41h14.1zm-86.265-1.098c-1.029 5.127-1.565 10.875-1.565 17.182 0 28.753 10.956 46.145 29.215 46.146 11.803 0 20.551-8.753 24.676-24.238-4.127 15.476-12.873 24.222-24.672 24.222-18.26 0-29.215-17.392-29.215-46.146 0-6.301.534-12.043 1.561-17.166M60.704 337.4c-2.127 16.184-16.601 25.891-39.097 25.891H2.28v-91.015 91.023h19.327c22.5 0 36.974-9.711 39.098-25.899m10.82 25.899h12.381v-.008H71.527zm14.698-29.777-.001.007h28.146l10.421 29.77h11.847l-.003-.008h-11.843l-10.421-29.769zm135.014 29.777h11.668v-.008h-11.663v-91.015h-.005zm19.156-61.641c-2.762 0-5.167 1.714-5.879 2.349l-1.604 1.206v.003l1.599-1.202c.712-.635 3.118-2.349 5.879-2.349 6.947 0 9.619 6.157 15.141 29.643 5.434 23.295 11.491 31.991 24.584 31.991h3.474v-.008h-3.47c-13.093 0-19.15-8.696-24.583-31.99-5.522-23.485-8.194-29.643-15.141-29.643M15.163 361.416h6.443c8.032 0 14.5-2.602 19.008-7.398 4.541-4.832 7.121-11.927 7.121-20.87 0-9.283-2.212-16.624-6.104-21.612-3.867-4.955-9.339-7.544-16.016-7.544-4.18 0-7.6-.306-10.452-1.028zm184.062-24.965-.104.442zm1.585.429.027-.117.003-.016zM13.947 301.665c2.94 1.016 6.68 1.46 11.668 1.46 14.43 0 23.336 11.299 23.336 30.023l.001-.006c0-18.725-8.907-30.024-23.337-30.024-4.987 0-8.728-.444-11.668-1.46zm46.93 34.061q-.018.237-.041.472.06-.65.096-1.315zm139.658-6.761h.001zM98.87 289.407c-4.448 13.836-9.058 27.615-12.02 41.39 2.962-13.773 7.572-27.548 12.02-41.382l15.139 43.092h.003zm.049 3.72c-4.163 12.899-8.32 25.712-11.02 38.52h24.553zm76.769-20.161c-7.072 0-12.275 7.172-15.13 18.702 2.855-11.521 8.057-18.688 15.127-18.688 9.708.001 17.724 13.267 13.36 37.578l12.381-10.03-.002-.011-12.375 10.025c4.364-24.31-3.652-37.576-13.361-37.576M53.271 288.881c-.626 7.492-7.592 12.401-19.817 13.793l.023.003c12.214-1.396 19.172-6.305 19.794-13.796m-38.108 11.194c2.619.737 5.968 1.105 10.452 1.105 4.738 0 8.332-1.262 10.775-3.498 2.474-2.266 3.863-5.625 3.863-9.917 0-4.669-1.561-7.993-4.805-10.168-3.26-2.187-8.46-3.374-16.246-3.374h-4.039zm223.18.885.007-.003 37.219-28.681h-.004zm-89.801-3.646a63 63 0 0 0-.25 1.03zM13.947 273.355h5.255c15.854.001 22.268 4.825 22.268 14.41v-.008c0-9.585-6.414-14.408-22.268-14.408h-5.255zm247.015-1.079c-.467 3.246-1.496 6.214-3.146 9.03 1.652-2.816 2.682-5.783 3.15-9.03zM202.457 203.096c0 5.987 1.721 10.518 4.822 13.532 3.066 2.979 7.584 4.58 13.537 4.58 6.271 0 10.983-1.611 14.158-4.592 3.208-3.012 4.969-7.537 4.969-13.52 0-22.108-.009-44.06-9.746-66.06l-.504-1.138h14.284v67.198c0 8.163-2.285 14.643-6.789 19.102-4.541 4.497-11.236 6.836-19.697 6.836-9.108 0-16.309-2.32-21.204-6.81-4.864-4.463-7.326-10.953-7.326-19.128v-67.198h13.496zm-59.858-67.58c9.288 0 16.558 4.61 21.445 12.616 4.882 7.998 7.511 19.547 7.511 33.889 0 14.436-2.628 26.11-7.508 34.209-4.882 8.103-12.15 12.802-21.448 12.802-9.38 0-16.693-4.694-21.598-12.801-4.902-8.1-7.53-19.775-7.53-34.21 0-14.342 2.629-25.892 7.533-33.891 4.91-8.009 12.226-12.614 21.595-12.614m131.994.446v-.056h8.069c11.547 0 20.112 1.336 25.818 4.108 5.802 2.817 8.51 7.048 8.51 12.501 0 5.355-2.5 9.712-7.382 12.712-4.198 2.579-10.05 4.087-17.322 4.446 5.177 2.205 8.964 5.096 11.914 8.978 3.68 4.843 6.03 11.199 8.249 19.587l.001.004c2.353 9.077 4.128 16.128 6.281 20.923 1.077 2.397 2.213 4.143 3.482 5.277 1.233 1.103 2.551 1.597 4.099 1.597h3.126v2.622h-3.126c-4.108 0-7.609-.7-10.614-2.089-2.996-1.385-5.427-3.421-7.472-6.01-4.065-5.148-6.715-12.631-9.228-21.986-2.531-9.358-4.04-15.812-6.547-20.477-1.239-2.307-2.703-4.132-4.615-5.622-1.91-1.489-4.315-2.682-7.5-3.676l-.714-.223v-.011a23 23 0 0 1-1.338-.396v60.49h-13.496v-92.763zM84.084 165.175c7.651-9.479 13.197-19.081 12.64-28.371l-.053-.906h15.547l-26.04 32.399v60.356H72.684v-59.465l-26.987-33.29h14.828zm56.646 62.92a26 26 0 0 0 1.869.071l.001-.001a26 26 0 0 1-1.87-.07m78.354.043-.128.005zm46.867999999999995-.343h11.168v-.008h-11.168zm14.834-59.793c13.215 4.126 14.323 11.806 19.353 30.404 5.03 18.725 10.487 29.389 26.173 29.389h1.961v-.008h-1.961c-15.686 0-21.142-10.664-26.172-29.389-5.03-18.597-6.14-26.277-19.354-30.403zm-195.772.057v59.728-59.729zm57.58500000000001-31.677c-17.478 0-27.964 17.075-27.964 45.639 0 25.999 8.574 42.707 23.136 45.669-14.56-2.965-23.132-19.672-23.132-45.669 0-28.564 10.486-45.638 27.964-45.638zm.8100000000000023 1.1170000000000044c9.835.867 15.814 17.58 15.814 44.522 0 28.053-6.309 45.127-16.623 45.128l.003.001c10.315 0 16.624-17.074 16.624-45.129 0-26.946-5.981-43.66-15.818-44.522m83.333 89.508-.34.094zm-84.14300000000001-88.679c-2.141 0-4.189.849-6.109 2.729-1.931 1.891-3.643 4.748-5.057 8.538-2.826 7.571-4.38 18.622-4.38 32.426 0 13.994 1.554 25.189 4.381 32.856 1.415 3.838 3.127 6.731 5.06 8.646 1.922 1.905 3.969 2.76 6.105 2.76 2.085 0 4.105-.85 6.015-2.757 1.919-1.916 3.627-4.81 5.042-8.649 2.827-7.668 4.403-18.863 4.403-32.856 0-13.803-1.576-24.855-4.402-32.426-1.415-3.791-3.122-6.649-5.039-8.541-1.907-1.883-3.928-2.726-6.019-2.726m88.704-1.562h11.508v66.33c0 10.981-4.194 18.633-12.013 22.398 7.82-3.764 12.014-11.416 12.014-22.398v-66.331h-11.509zm-41.178 0h11.166v66.33c0 12.187 6.991 18.979 19.523 18.979l.002-.001c-12.532 0-19.523-6.791-19.523-18.978v-66.331h-11.168zm37.682 84.542q.13-.03.259-.062l.002-.001q-.13.032-.261.063m1.718-.486-.002.001zm.806-.285.118-.043.002-.001zm1.44-.607-.002.001zm83.98-65.887c-.918 9.351-10.362 14.841-26.95 14.841h-1.28l.022.007h1.257c16.592 0 26.037-5.493 26.951-14.848m-38.631 12.753c1.023.381 2.217.825 3.666 1.142v-.006c-1.449-.318-2.643-.762-3.666-1.143zm1.164-1.508c2.671 1.127 6.106 1.721 10.516 1.721 4.827 0 8.432-1.353 10.867-3.765 2.47-2.447 3.826-6.078 3.826-10.729 0-4.717-1.612-8.108-4.866-10.336-3.275-2.243-8.432-3.46-15.965-3.46h-4.378zM47.76 136.766h12.104l24.213 30.086-24.213-30.087H47.76zm38.407 27.49q-.654.834-1.33 1.667l.75-.931q.292-.368.58-.736m5.457-7.705v.001zm224.201-4.04.001.004zm-38.705-14.659h5.542c14.831 0 21.538 4.624 21.972 13.701-.431-9.082-7.137-13.708-21.972-13.708h-5.542zm-179.232-1.0859999999999994h12.275l.001-.001H97.888zM90.664 406.551c6.602 0 12.832 1.087 17.913 3.742 5.074 2.652 8.856 6.792 10.809 12.732l.139.424-17.688 12.079.531-2.713c1.696-8.646 1.144-14.586-1.109-18.326-1.117-1.853-2.626-3.123-4.421-3.933-1.787-.807-3.97-1.208-6.587-1.208-3.727 0-6.849.889-9.068 2.562-2.243 1.691-3.658 4.257-3.658 7.687 0 4.822 2.846 9.432 7.24 14.053 4.403 4.631 10.28 9.196 16.251 13.958 11.847 9.452 24.072 19.666 24.072 32.09 0 6.471-3.382 11.586-9.247 15.083-5.858 3.493-14.051 5.287-23.423 5.287-10.519 0-19.222-2.247-25.592-6.6-6.339-4.332-10.253-10.669-11.509-18.739l-.057-.371 17.713-12.32-.513 2.733c-2 10.666-.767 18.882 2.885 24.389 3.623 5.463 9.536 8.174 17.073 8.174 4.958 0 9.349-1.217 12.528-3.598 3.198-2.394 5.253-6.034 5.253-10.944 0-11.432-11.438-20.8-23.277-30.097-5.872-4.611-11.837-9.208-16.317-13.96-4.49-4.762-7.556-9.747-7.556-15.161 0-4.76 2.498-9.024 7.259-12.105 4.772-3.089 11.71-4.918 20.356-4.918m68.823 30.516 15.296-10.284c8.698-5.879 13.19-11.646 14.394-18.825l.13-.774h21.414l-41.974 27.772q.9-.058 1.815-.058c3.797 0 7.189.396 10.218 1.435 3.033 1.04 5.581 2.683 7.808 5.05 4.273 4.542 7.507 11.915 10.705 23.355l.31 1.12c3.725 13.679 5.822 21.518 8.105 25.957 1.141 2.22 2.263 3.445 3.474 4.127 1.135.641 2.502.889 4.571.889h2.44v2.607h-5.432c-4.025 0-7.588-.577-10.741-1.857-3.138-1.274-5.774-3.205-8.066-5.817-4.557-5.197-7.912-13.279-11.058-24.864-3.204-11.698-5.559-18.989-8.089-23.355-1.265-2.183-2.522-3.536-3.827-4.341-1.238-.764-2.572-1.066-4.235-1.066-1.2 0-2.416.324-3.496.779-1.069.45-1.873.972-2.213 1.232l-.037.029-1.512.976v58.284h-16.333v-92.254h16.333zm86.405 62.371h-16.333v-92.254h16.333zm37.696-91.481c.555 3.284 2.682 6.607 5.233 9.912l.516.661 44.904 57.095c-.577-22.483-2.918-44.964-12.049-67.371l-.435-1.07H339v92.254h-4.05l-56.468-72.075c.364 23.757 2.438 47.446 12.087 71.004l.439 1.071h-17.245v-78.065l-11.15-14.189h20.845zM56.72 474.648c2.476 15.909 15.373 24.558 35.698 24.558 10.933 0 20.032-2.518 25.543-7.264-5.512 4.744-14.609 7.262-25.54 7.262-20.325 0-33.222-8.649-35.698-24.558zm87.842 23.928h13.517v-.014h-13.514v-90.516h-.003zm22.186-61.314c-3.198 0-5.984 1.703-6.81 2.335l-1.857 1.2v.012l1.855-1.198c.825-.631 3.611-2.336 6.809-2.336 8.048 0 11.143 6.124 17.54 29.483 6.294 23.169 13.309 31.818 28.476 31.818h4.023v-.014h-4.02c-15.167 0-22.183-8.649-28.477-31.818-6.397-23.358-9.492-29.482-17.539-29.482m64.219 61.314h13.516v-.014h-13.512v-90.516h-.004zm44.204-77.399v77.399h14.032l-.006-.014h-14.024v-77.399l-10.306-13.117h-.013zm1.859 2.338 58.807 75.061h1.754v-.014h-1.752l-58.809-75.064zm-209.382-8.298c-2.092 2.416-3.19 5.263-3.19 8.357 0 20.834 47.15 35.67 47.15 59.218 0 4.654-1.797 8.288-4.783 10.855 2.988-2.567 4.786-6.203 4.786-10.858 0-23.548-47.15-38.384-47.15-59.217 0-3.093 1.096-5.94 3.187-8.355m255.912-7.171c9.696 23.795 11.76 47.653 12.173 71.448l.002.002c-.412-23.796-2.474-47.654-12.168-71.45zm-159.185 28.52.032-.009 43.092-28.511h-.02zm-74.121-28.083c-4.101 0-7.616.983-10.115 2.846 2.499-1.862 6.013-2.843 10.112-2.843 11.452 0 16.92 7.071 13.516 24.432l14.238-9.723-14.235 9.72c3.404-17.361-2.064-24.432-13.516-24.432m-11.051999999999998 3.629-.003.003.062-.056zm.814-.689"/></svg>