<svg xmlns="http://www.w3.org/2000/svg" width="1613" height="585" fill="none"><path fill="#D2BEB3" d="M216.354 173.686c0 15.474 4.324 27.183 12.119 34.973 7.704 7.701 19.06 11.836 34.022 11.836 15.761 0 27.601-4.162 35.58-11.865 8.064-7.785 12.49-19.479 12.49-34.944 0-57.137-.022-113.868-24.494-170.726L284.806.02h35.896v173.666c0 21.097-5.741 37.845-17.058 49.37-11.413 11.621-28.24 17.667-49.505 17.667-22.893 0-40.991-5.996-53.293-17.602-12.225-11.533-18.412-28.308-18.412-49.435V.02h33.92zm-68.23-141.967-5.1-4.34C125.521 12.492 107.402 8.684 90.915 7.62v232.12h-33.92V7.62C40.553 8.7 22.606 12.636 5.09 27.388L0 31.675V.02h148.124zM397.652.164V.02h20.282c29.02 0 50.545 3.454 64.887 10.616 14.58 7.28 21.388 18.214 21.388 32.306 0 13.842-6.283 25.103-18.553 32.855-10.552 6.666-25.259 10.564-43.535 11.491 13.01 5.7 22.53 13.169 29.944 23.204 9.248 12.516 15.155 28.941 20.733 50.621l.002.009c5.913 23.459 10.372 41.683 15.785 54.074 2.706 6.196 5.559 10.707 8.749 13.639 3.101 2.85 6.413 4.128 10.305 4.128h7.853v6.776h-7.853c-10.325 0-19.125-1.81-26.676-5.399-7.531-3.579-13.64-8.841-18.78-15.534-10.217-13.304-16.877-32.641-23.193-56.819-6.361-24.185-10.155-40.866-16.454-52.923-3.115-5.962-6.793-10.678-11.598-14.53-4.801-3.849-10.844-6.928-18.85-9.499l-1.794-.576v-.027a57 57 0 0 1-3.362-1.027V239.74h-33.92V0zM576.923 2.03c1.153 8.534 5.57 17.168 10.868 25.756l1.07 1.717.001.002 93.255 148.355c-1.198-58.421-6.06-116.835-25.021-175.058L656.189.02H692v239.718h-8.41L566.32 52.456c.755 61.729 5.062 123.284 25.101 184.498l.911 2.784h-35.814V36.891L533.363.02h43.289zM317.776 173.685c0 41.667-22.712 64.796-63.637 64.796-44.353 0-68.779-23.129-68.78-64.796v.001c0 41.667 24.427 64.797 68.78 64.797 40.925 0 63.637-23.13 63.637-64.797zM59.921 237.497v.002h28.068v-.002zm316.017.002h28.068v-.002h-28.068zm37.282-154.53c33.211 10.664 35.997 30.513 48.638 78.578 12.642 48.393 26.356 75.952 65.781 75.952h4.927v-.002h-4.927c-39.425 0-53.139-27.559-65.781-75.952-12.641-48.065-15.427-67.914-48.638-78.577zm146.223-46.588v201.118h29.14l-.001-.002h-29.136V36.379l-21.425-34.12h-.004zm3.86 6.073L685.432 237.5h3.642v-.002h-3.638L563.303 42.448zM659.935 2.26c20.14 61.842 24.424 123.849 25.282 185.691l.004.005c-.857-61.844-5.142-123.852-25.283-185.696zm-371.084 0c22.157 51.482 24.388 102.832 24.613 154.169-.225-51.337-2.455-102.687-24.612-154.17zm208.297 57.959c-8.607 15.98-30.462 25.046-63.787 25.046h-3.214 3.213c33.327 0 55.182-9.065 63.788-25.046m-93.141 19.634c2.571.984 5.57 2.133 9.213 2.953v-.002c-3.643-.82-6.642-1.97-9.213-2.953zm2.925-3.897c6.712 2.912 15.345 4.445 26.428 4.445 12.133 0 21.193-3.494 27.312-9.727 6.207-6.324 9.617-15.709 9.617-27.732 0-12.19-4.053-20.951-12.232-26.71-8.232-5.796-21.191-8.944-40.123-8.944h-11.002zm93.091-23.011000000000003v.001m-26.9-6.605a55 55 0 0 1-.071 1.101zM404.007 5.048h13.927c38.314 0 55.057 12.628 55.276 37.4-.218-24.773-16.961-37.401-55.276-37.401h-13.927M59.921 5.21C42.137 6.03 22.21 9.64 2.926 25.88v.002C22.21 9.642 42.136 6.032 59.92 5.212zm28.07 0c17.783.821 37.924 4.267 57.208 20.67v-.001l-.904-.759C125.287 9.37 105.497 6.018 87.99 5.211M1364.53 0c17.3 0 31.77 7.237 42.32 20.354 10.5 13.044 17.21 31.956 19.35 55.707l.09.936-34.88 32.117 1.15-7.256c4.93-31.227 2.83-55.166-3.1-71.19-2.96-8.016-6.84-13.933-11.13-17.804-4.27-3.847-8.85-5.595-13.4-5.595-5.15 0-10.1 2.309-14.73 7.279-4.66 4.987-8.76 12.417-12.14 21.999-6.76 19.139-10.45 46.262-10.45 77.899 0 36.063 4.85 62.969 13.45 80.776 8.61 17.828 20.59 25.91 34.6 25.91 10.73 0 20.16-5.908 27.69-18.177 7.53-12.251 12.8-30.347 15.32-53.436l.22-2.043h9.18l-.25 2.427c-2.95 28.533-10.04 51.315-20.65 67.038-10.63 15.746-25.06 24.746-42.64 24.747-22.28 0-39.64-12.134-51.29-33.084-11.64-20.934-17.88-51.108-17.88-88.416 0-37.064 6.24-66.914 17.89-87.586C1324.91 11.902 1342.28 0 1364.53 0m-355.3.984c27.31 0 47.35 3.37 60.64 10.414 13.51 7.168 19.67 17.947 19.67 31.853 0 10.984-4.2 20.258-12.4 27.274-6.07 5.198-14.21 9.046-24.15 11.478 15.44 4.412 27.97 12.56 37.04 23.927 11.07 13.87 16.92 32.415 16.92 54.613 0 24.613-8.65 44.691-24.68 58.635-16.05 13.963-39.21 21.525-67.57 21.525H968V.984zm270.47 239.719h-32.62l-23.69-76.936h-59.41c-4.22 24.845-6.28 49.657-4.91 74.597l.13 2.339h-34.57l61.19-199.796v-.002l12.26-39.92h8.17zm218.07-162.066 30.01-26.723c17.07-15.278 25.89-30.263 28.25-48.918l.25-2.012h42.02l-82.36 72.164c1.17-.1 2.36-.148 3.56-.148 7.45 0 14.11 1.028 20.05 3.728 5.95 2.703 10.95 6.97 15.32 13.122 8.39 11.802 14.73 30.96 21.01 60.687l.61 2.911c7.31 35.542 11.42 55.91 15.9 67.447 2.24 5.767 4.44 8.95 6.82 10.724 2.22 1.664 4.91 2.309 8.97 2.309h4.79v6.775h-10.66c-7.9 0-14.89-1.498-21.08-4.825-6.16-3.311-11.33-8.329-15.83-15.118-8.94-13.503-15.52-34.503-21.7-64.605-6.29-30.399-10.91-49.343-15.87-60.687-2.48-5.671-4.95-9.188-7.51-11.28-2.43-1.986-5.05-2.772-8.31-2.772-2.36 0-4.74.844-6.86 2.025-2.1 1.17-3.68 2.529-4.35 3.204l-.07.074-2.96 2.537v151.447h-32.06V.984h32.06zM1316.9 31.569c-12.14 20.297-18.78 50.499-18.78 88.619 0 74.312 24.9 119.26 66.41 119.26 10.33 0 19.63-3.354 27.7-9.763-8.07 6.408-17.37 9.761-27.7 9.761-41.51 0-66.41-44.948-66.41-119.259 0-38.12 6.64-68.32 18.78-88.618m-188.73 206.895 5.04-16.45zm340.31 0V3.227H1495v-.002h-26.52zM970.765 3.224v235.24h.001V3.227h38.464c39.17 0 62.2 7.01 71.98 20.907-9.78-13.898-32.81-20.91-71.98-20.91zm622.775 225.929c3.68 5.468 8.1 7.017 14.64 7.017h2.02v-.003h-2.02c-6.54 0-10.96-1.548-14.64-7.016zM1069.4 116.358c4.85 11.955 7.45 26.837 7.45 44.185 0 46.752-23.68 75.296-62.15 75.296h-17.412v.003h17.412c38.47 0 62.16-28.544 62.16-75.297 0-17.35-2.61-32.232-7.46-44.187M1000.05 233.6h14.65c18.25 0 32.96-6.726 43.2-19.123 10.33-12.487 16.19-30.823 16.19-53.934 0-23.991-5.03-42.965-13.87-55.855-8.79-12.808-21.23-19.498-36.41-19.499-9.5 0-17.28-.79-23.76-2.657zm395.76-7.036v.001zm5.13-5.565c.09-.118.19-.236.29-.355v-.002c-.1.119-.2.238-.29.357m1.82-2.342a55.108 55.108 0 0 0 .5-.68zm163.25-1.886c.11.195.23.389.34.582-.11-.193-.23-.387-.34-.582m-159.37-3.865c-.49.799-.98 1.581-1.49 2.346a79 79 0 0 0 1.96-3.109zm155.78-2.93v.002zm-160.8-.04v-.001zm1.97-2.59v-.001zm126.98-112.31099999999999c5.01 11.596 9.64 30.675 15.86 60.75 3.73 18.212 7.6 32.97 12 44.699-4.4-11.728-8.27-26.486-12-44.696-6.22-30.078-10.85-49.157-15.86-60.754m-109.15 54.681c-2.2 20.185-6.51 36.742-12.69 49.01 6.18-12.268 10.49-28.824 12.69-49.01m-196.68 9.186h-62.56v.002h62.56l-34.42-111.385zm-34.3-101.79c-9.47 33.336-18.92 66.449-25.05 99.55h55.81zm-148.81 24.692c19.91 3.227 35.66 12.092 46.37 25.708-10.71-13.616-26.45-22.48-46.37-25.71zm323.3-76.777c-5.48 0-10.46 2.155-14.91 6.173 4.45-4.017 9.43-6.172 14.91-6.172 22.07 0 40.29 34.286 30.37 97.115l28.14-25.92-28.14 25.919c9.92-62.829-8.3-97.114-30.37-97.115m190.6 90.74c1.06 1.846 2.08 3.843 3.09 5.997a83 83 0 0 0-2.72-5.346zm-36.03-20.528c-4.25 0-8.3.656-12.14 2.13l-.01.006c3.85-1.476 7.9-2.133 12.15-2.133 15.3 0 26.06 4.521 34.75 18.383-8.69-13.863-19.45-18.386-34.75-18.386m9.71 16.852-.21-.424v-.003q.105.211.21.427m29.57-88.866c-2.43 19.193-11.54 34.613-28.95 50.197L1495 84.425v.004l34.83-31.005c17.41-15.584 26.52-31.004 28.95-50.197h33.2v-.002zm-503.11 20.95c2.85 5.234 4.18 11.593 4.18 19.076 0 22.802-12.96 36.91-36.04 36.91-11.34 0-19.84-1.149-26.522-3.61v.004c6.682 2.46 15.182 3.608 26.522 3.608 23.08 0 36.04-14.108 36.04-36.91 0-7.484-1.33-13.844-4.18-19.077m-55.62 50.893c5.95 1.904 13.57 2.853 23.76 2.853 10.77 0 18.94-3.26 24.49-9.04 5.63-5.856 8.78-14.537 8.78-25.63 0-12.066-3.55-20.656-10.92-26.277-7.41-5.651-19.23-8.721-36.93-8.721h-9.18zm317.91-45.227v-.001m7.320000000000001-9.746v-.001m18.289999999999964-1.2350000000000003v.002zm1.93-2.708c.08-.098.15-.197.23-.295v-.002c-.08.098-.15.198-.23.297m-145.84-11.03.58-1.895h3.85v-.002h-3.85zM247.26 343c23.7 0 42.253 11.914 54.722 32.604 12.457 20.671 19.164 50.519 19.164 87.584 0 37.309-6.707 67.481-19.158 88.414-12.456 20.941-31.001 33.085-54.728 33.086-23.932 0-42.591-12.134-55.108-33.084-12.507-20.934-19.214-51.107-19.214-88.416 0-37.064 6.708-66.914 19.221-87.586C204.689 354.903 223.355 343 247.26 343m152.732 174.65c0 15.475 4.391 27.184 12.304 34.974 7.822 7.7 19.351 11.836 34.542 11.836 16.001 0 28.022-4.162 36.123-11.865 8.187-7.785 12.681-19.479 12.681-34.945 0-57.136-.024-113.868-24.869-170.725l-1.284-2.941h36.444V517.65c0 21.098-5.828 37.846-17.319 49.371-11.587 11.621-28.67 17.666-50.26 17.667-23.242 0-41.617-5.996-54.107-17.602-12.411-11.533-18.692-28.308-18.692-49.436V343.984h34.437zM97.95 419.646c19.524-24.497 33.676-49.311 32.256-73.322l-.139-2.34h39.669l-66.441 83.732v155.987H68.857V430.018L0 343.984h37.835zm486.106-75.521v-.145h20.59c29.464 0 51.317 3.454 65.878 10.617 14.803 7.281 21.714 18.214 21.714 32.306 0 13.842-6.378 25.103-18.836 32.855-10.713 6.666-25.644 10.564-44.199 11.491 13.209 5.699 22.873 13.169 30.401 23.204 9.388 12.516 15.386 28.941 21.048 50.621l.002.009c6.004 23.459 10.531 41.683 16.027 54.074 2.747 6.196 5.645 10.707 8.883 13.639 3.148 2.85 6.511 4.128 10.461 4.128h7.974v6.776h-7.974c-10.482 0-19.416-1.81-27.083-5.399-7.646-3.579-13.848-8.841-19.067-15.534-10.372-13.304-17.134-32.641-23.546-56.819-6.458-24.185-10.31-40.866-16.705-52.923-3.163-5.962-6.896-10.679-11.775-14.531-4.874-3.848-11.009-6.928-19.137-9.498l-1.821-.576v-.027a59 59 0 0 1-3.414-1.027V583.7h-34.438V343.961zm-374.814 15.029c-21.329 18.465-33.335 54.588-33.335 104.034 0 74.312 26.758 119.26 71.353 119.26 6.9 0 13.375-1.098 19.389-3.233l.002-.001c-6.014 2.135-12.489 3.232-19.389 3.232-44.595 0-71.352-44.948-71.352-119.259 0-49.444 12.005-85.567 33.332-104.033m377.784-12.769-25.017-.164V581.46h.003V346.227l25.016.164v-.164h17.62c47.79 0 73.961 9.19 81.951 27.213-7.987-18.027-34.158-27.219-81.953-27.219h-17.62zm108.983 217.927c5.13 9.708 11.263 14.858 20.018 14.858h5.001v-.007h-5.003c-8.755 0-14.888-5.149-20.019-14.857zM247.26 350.269c-5.464 0-10.688 2.193-15.586 7.051-4.928 4.888-9.295 12.272-12.904 22.067-7.211 19.567-11.177 48.125-11.177 83.801 0 36.168 3.966 65.098 11.178 84.915 3.611 9.92 7.98 17.398 12.913 22.347 4.904 4.922 10.127 7.133 15.576 7.133 5.322 0 10.478-2.197 15.351-7.126 4.897-4.952 9.253-12.433 12.865-22.354 7.213-19.818 11.233-48.75 11.233-84.915 0-35.673-4.019-64.233-11.23-83.801-3.61-9.796-7.965-17.183-12.857-22.074-4.868-4.865-10.025-7.044-15.362-7.044m.002000000000000668-2.2419999999999902-.002.001c26.322 0 42.42 43.636 42.42 115.16 0 59.2-10.733 99.48-28.998 112.272 18.267-12.79 29-53.071 29-112.273 0-71.524-16.098-115.16-42.42-115.16m121.262-1.8000000000000114h28.497v171.426c0 31.497 17.838 49.049 49.816 49.049 18.844 0 32.87-5.554 41.536-16.019l.001-.002c-8.666 10.465-22.692 16.019-41.536 16.019-31.978 0-49.816-17.553-49.816-49.05V346.225h-28.498zm325.342 213.647a78 78 0 0 0 .524 1.155zm-2.5490000000000066-6.317.117.307-.119-.313zm-199.34799999999998-8.015a39 39 0 0 1 .288-.498zm-18.373-199.315h29.365v171.426c0 11.359-1.713 21.34-5.048 29.851 3.336-8.511 5.05-18.494 5.05-29.854V346.225h-29.368zm19.392 197.468.098-.186.001-.003zm142.28199999999998-85.383c4.923 11.663 8.557 26.919 13.971 47.196 2.544 9.593 5.134 18.366 7.958 26.269-2.823-7.901-5.411-16.673-7.955-26.263-5.415-20.281-9.05-35.538-13.974-47.202m-18.221-29.079c25.723 8.216 39.551 20.957 49.394 42.527-9.841-21.568-23.664-34.31-49.377-42.527zm-17.189-2.302h.003v-.159l-.003-.001zm59.108-52.777c1.213 3.82 1.803 8.071 1.803 12.749 0 24.607-14.14 39.7-40.462 39.7-12.399 0-22.187-1.806-29.8-5.415v.007c7.614 3.609 17.403 5.413 29.803 5.413 26.321 0 40.461-15.092 40.461-39.699 0-4.681-.591-8.933-1.805-12.755m-65.491 45.763c6.814 2.912 15.579 4.445 26.832 4.445 12.317 0 21.516-3.494 27.728-9.727 6.302-6.324 9.764-15.709 9.764-27.732 0-12.191-4.115-20.951-12.419-26.711-8.358-5.795-21.514-8.943-40.736-8.943h-11.169zM5.264 346.227h30.888l61.78 77.756c20.875-25.579 36.75-51.978 35.243-77.722 1.505 25.743-14.369 52.142-35.242 77.72L36.15 346.225H5.261zm653.607 27.627-.078-.239-.003-.007zm-.513-1.446-.075-.198-.003-.006zM215.666 354.31q-.256.167-.51.337.256-.17.512-.338zm15.601-.141.047-.041.002-.002zm-13.969-.881-.016.01.018-.011zm16.357-.943q.132-.092.264-.181l.002-.002q-.133.09-.266.183m2.978-1.773q.275-.14.553-.271l.002-.002q-.279.133-.555.273m-103.46-4.345h31.323l.002-.002h-31.325zM1047.91 342c14.9 0 28.96 2.823 40.43 9.723 11.45 6.89 19.99 17.649 24.4 33.086l.31 1.101-39.92 31.386 1.2-7.049c3.83-22.468 2.58-37.901-2.51-47.618-2.52-4.815-5.92-8.116-9.98-10.222-4.03-2.096-8.96-3.138-14.86-3.138-8.41 0-15.46 2.308-20.47 6.656-5.06 4.393-8.26 11.062-8.26 19.975 0 12.532 6.43 24.509 16.35 36.517 9.93 12.032 23.2 23.893 36.67 36.268 26.75 24.558 54.34 51.1 54.34 83.385 0 16.813-7.64 30.104-20.87 39.191-13.22 9.075-31.72 13.739-52.87 13.739-23.74 0-43.39-5.84-57.764-17.15-14.307-11.256-23.14-27.723-25.975-48.691l-.131-.964 39.98-32.013-1.16 7.101c-4.51 27.715-1.73 49.063 6.51 63.372 8.18 14.194 21.53 21.24 38.54 21.241 11.19 0 21.1-3.162 28.28-9.348 7.21-6.222 11.85-15.681 11.85-28.44 0-29.705-25.82-54.046-52.54-78.205-13.25-11.982-26.71-23.925-36.83-36.272-10.13-12.376-17.049-25.328-17.049-39.396 0-12.369 5.638-23.45 16.379-31.457 10.78-8.025 26.44-12.778 45.95-12.778m155.35 79.293 34.52-26.723c19.63-15.278 29.77-30.263 32.49-48.918l.29-2.011h48.33l-94.73 72.164c1.35-.1 2.72-.149 4.09-.149 8.57 0 16.23 1.029 23.07 3.729 6.84 2.702 12.59 6.97 17.62 13.121 9.64 11.802 16.94 30.961 24.16 60.687l.7 2.911c8.41 35.543 13.14 55.911 18.29 67.447 2.58 5.767 5.11 8.95 7.84 10.724 2.57 1.664 5.65 2.309 10.32 2.309h5.51v6.775h-12.26c-9.09 0-17.13-1.498-24.25-4.825-7.08-3.31-13.03-8.329-18.2-15.118-10.29-13.502-17.86-34.503-24.96-64.604-7.23-30.399-12.55-49.344-18.26-60.688-2.85-5.671-5.69-9.188-8.63-11.279-2.8-1.987-5.81-2.773-9.56-2.773-2.71 0-5.46.844-7.89 2.026-2.42 1.17-4.23 2.528-5 3.204l-.08.073-3.41 2.537v151.447h-36.87V343.641h36.87zm195.02 162.066h-36.87V343.641h36.87zm85.08-237.709c1.25 8.534 6.05 17.168 11.81 25.756l1.16 1.717v.002l101.35 148.355c-1.3-58.421-6.58-116.835-27.19-175.058l-.98-2.781h38.92v239.718h-9.14l-127.46-187.282c.82 61.73 5.51 123.284 27.28 184.498l.99 2.784h-38.92V380.512l-25.16-36.871h47.04zm-118.77.233h30.5V581.12h.01V345.881h-30.51zm99.77 34.119V581.12 380.004l-23.29-34.121h39.12v-.002h-39.12zM1015 564.16c8.69 10.483 21.27 15.978 36.87 15.978 24.22 0 43.31-13.78 43.31-40.027 0-8.351-1.98-16.279-5.4-23.883 3.42 7.603 5.4 15.531 5.4 23.88 0 26.247-19.09 40.028-43.31 40.028-15.6 0-28.18-5.495-36.87-15.976m293.63-.915c5.36 12.551 11.1 15.581 21.62 15.581h2.33v-.003h-2.33c-10.52 0-16.26-3.029-21.62-15.578M1009 554.93c1.58 3.116 3.39 5.955 5.42 8.51-2.03-2.555-3.84-5.395-5.42-8.51m295.8-2.399c1.22 3.927 2.4 7.293 3.61 10.175-1.21-2.882-2.39-6.248-3.61-10.175m-7.210000000000036-27.003999999999998c1.43 5.873 2.75 11.12 4 15.805-1.25-4.685-2.57-9.933-4-15.807zm-326.295-6.58c.891 6.589 2.381 12.697 4.439 18.313-2.057-5.615-3.547-11.723-4.437-18.311l32.363-25.917v-.004zm603.315-170.099c21 60.86 25.53 121.875 26.44 182.73l-107.58-157.482-1.17-1.724 1.17 1.727 107.59 157.482c-.92-60.857-5.45-121.872-26.45-182.733m-283.95 147.628c1.8 7.596 3.43 14.51 4.94 20.8-1.51-6.291-3.14-13.206-4.94-20.803-.17-.736-.35-1.465-.52-2.188.17.724.35 1.454.52 2.191m-201.82 17.756c.14.285.28.571.41.857q-.51-1.078-1.05-2.148zm167.76000000000002-26.653000000000002c.53 2.146 1.06 4.357 1.61 6.635-.55-2.277-1.08-4.488-1.61-6.633zm-182.31 4.979.57.687zm32.5-2.4899999999999993c.31.429.61.86.92 1.29-.31-.43-.61-.861-.92-1.29m121.46-72.172c-4.88 0-9.54.654-13.96 2.129l-.01.006c4.43-1.476 9.08-2.133 13.97-2.133 30.45 0 45.28 13.542 59.16 65.603-13.88-52.063-28.71-65.605-59.16-65.605m-194.49-2.091000000000001c18.06 20.988 45.48 41.507 65.05 64.216-19.57-22.709-46.99-43.228-65.05-64.216m218.21 53.795c-.07-.256-.13-.512-.2-.765v-.002c.07.254.13.51.2.767m-6.69-21.693c-.05-.125-.09-.251-.14-.376v-.002c.05.126.09.252.14.378m-231.24-13.692c.55.572 1.1 1.144 1.66 1.715-.56-.571-1.11-1.143-1.66-1.715m259.39-88.334c-2.79 19.193-13.27 34.613-33.3 50.197l-40.05 31.004v.003l40.05-31.005c20.03-15.584 30.51-31.004 33.3-50.197h38.19v-.002zm-196.64999999999998 20.52499999999999c3.61 10.18 4.02 24.659.7 44.108l.01-.003c3.31-19.448 2.9-33.926-.71-44.105m-28.87-22.166000000000004c-37.49 0-59.149 18.209-59.149 41.995 0 5.701 1.181 11.229 3.293 16.629-2.112-5.399-3.292-10.927-3.292-16.627 0-23.786 21.658-41.995 59.148-41.995 19.64 0 37.3 5.089 49.25 18.012-11.95-12.925-29.61-18.014-49.25-18.014m57.35 29.769c.08.146.15.293.23.441-.08-.148-.15-.295-.23-.441m-30.21000000000003-11.67c.14.26.26.524.39.792-.13-.268-.25-.532-.39-.792m499.37-14.057-.84-2.399h31.67v-.002h-31.67zm-404.85-2.399h30.51v-.002h-30.51z"/></svg>